<mxfile host="app.diagrams.net" agent="Mozilla/5.0 (Windows NT 10.0; Win64; x64) AppleWebKit/537.36 (KHTML, like Gecko) Chrome/128.0.0.0 Safari/537.36" version="24.7.16">
  <diagram id="R2lEEEUBdFMjLlhIrx00" name="Page-1">
    <mxGraphModel dx="1195" dy="643" grid="1" gridSize="10" guides="1" tooltips="1" connect="1" arrows="1" fold="1" page="1" pageScale="1" pageWidth="850" pageHeight="1100" math="0" shadow="0" extFonts="Permanent Marker^https://fonts.googleapis.com/css?family=Permanent+Marker">
      <root>
        <mxCell id="0" />
        <mxCell id="1" parent="0" />
        <mxCell id="DGnR2dv2Iqxk1ab3YKql-1" value="CAMPEONATO" style="rounded=1;whiteSpace=wrap;html=1;" vertex="1" parent="1">
          <mxGeometry x="365" y="110" width="120" height="60" as="geometry" />
        </mxCell>
        <mxCell id="DGnR2dv2Iqxk1ab3YKql-2" value="CIRCUITO" style="rounded=1;whiteSpace=wrap;html=1;" vertex="1" parent="1">
          <mxGeometry x="680" y="110" width="120" height="60" as="geometry" />
        </mxCell>
        <mxCell id="DGnR2dv2Iqxk1ab3YKql-3" value="EQUIPO" style="rounded=1;whiteSpace=wrap;html=1;" vertex="1" parent="1">
          <mxGeometry x="200" y="230" width="120" height="60" as="geometry" />
        </mxCell>
        <mxCell id="DGnR2dv2Iqxk1ab3YKql-5" value="INTERVENIR" style="rhombus;whiteSpace=wrap;html=1;" vertex="1" parent="1">
          <mxGeometry x="220" y="100" width="80" height="80" as="geometry" />
        </mxCell>
        <mxCell id="DGnR2dv2Iqxk1ab3YKql-6" value="TENER" style="rhombus;whiteSpace=wrap;html=1;" vertex="1" parent="1">
          <mxGeometry x="540" y="100" width="80" height="80" as="geometry" />
        </mxCell>
        <mxCell id="DGnR2dv2Iqxk1ab3YKql-7" value="TENER" style="rhombus;whiteSpace=wrap;html=1;" vertex="1" parent="1">
          <mxGeometry x="385" y="220" width="80" height="80" as="geometry" />
        </mxCell>
        <mxCell id="DGnR2dv2Iqxk1ab3YKql-8" value="TEMPORADA" style="rounded=1;whiteSpace=wrap;html=1;" vertex="1" parent="1">
          <mxGeometry x="520" y="230" width="120" height="60" as="geometry" />
        </mxCell>
        <mxCell id="DGnR2dv2Iqxk1ab3YKql-10" value="" style="endArrow=none;html=1;rounded=0;entryX=0;entryY=0.5;entryDx=0;entryDy=0;" edge="1" parent="1" source="DGnR2dv2Iqxk1ab3YKql-5" target="DGnR2dv2Iqxk1ab3YKql-1">
          <mxGeometry width="50" height="50" relative="1" as="geometry">
            <mxPoint x="430" y="330" as="sourcePoint" />
            <mxPoint x="480" y="280" as="targetPoint" />
          </mxGeometry>
        </mxCell>
        <mxCell id="DGnR2dv2Iqxk1ab3YKql-11" value="" style="endArrow=none;html=1;rounded=0;entryX=0.5;entryY=1;entryDx=0;entryDy=0;exitX=0.5;exitY=0;exitDx=0;exitDy=0;" edge="1" parent="1" source="DGnR2dv2Iqxk1ab3YKql-3" target="DGnR2dv2Iqxk1ab3YKql-5">
          <mxGeometry width="50" height="50" relative="1" as="geometry">
            <mxPoint x="310" y="150" as="sourcePoint" />
            <mxPoint x="375" y="150" as="targetPoint" />
            <Array as="points" />
          </mxGeometry>
        </mxCell>
        <mxCell id="DGnR2dv2Iqxk1ab3YKql-12" value="" style="endArrow=none;html=1;rounded=0;entryX=1;entryY=0.5;entryDx=0;entryDy=0;exitX=0;exitY=0.5;exitDx=0;exitDy=0;" edge="1" parent="1" source="DGnR2dv2Iqxk1ab3YKql-6" target="DGnR2dv2Iqxk1ab3YKql-1">
          <mxGeometry width="50" height="50" relative="1" as="geometry">
            <mxPoint x="430" y="330" as="sourcePoint" />
            <mxPoint x="480" y="280" as="targetPoint" />
          </mxGeometry>
        </mxCell>
        <mxCell id="DGnR2dv2Iqxk1ab3YKql-13" value="" style="endArrow=none;html=1;rounded=0;entryX=1;entryY=0.5;entryDx=0;entryDy=0;exitX=0;exitY=0.5;exitDx=0;exitDy=0;" edge="1" parent="1" source="DGnR2dv2Iqxk1ab3YKql-2" target="DGnR2dv2Iqxk1ab3YKql-6">
          <mxGeometry width="50" height="50" relative="1" as="geometry">
            <mxPoint x="430" y="330" as="sourcePoint" />
            <mxPoint x="480" y="280" as="targetPoint" />
          </mxGeometry>
        </mxCell>
        <mxCell id="DGnR2dv2Iqxk1ab3YKql-14" value="" style="endArrow=none;html=1;rounded=0;entryX=0.5;entryY=1;entryDx=0;entryDy=0;exitX=0.5;exitY=0;exitDx=0;exitDy=0;" edge="1" parent="1" source="DGnR2dv2Iqxk1ab3YKql-7" target="DGnR2dv2Iqxk1ab3YKql-1">
          <mxGeometry width="50" height="50" relative="1" as="geometry">
            <mxPoint x="430" y="330" as="sourcePoint" />
            <mxPoint x="480" y="280" as="targetPoint" />
          </mxGeometry>
        </mxCell>
        <mxCell id="DGnR2dv2Iqxk1ab3YKql-15" value="" style="endArrow=none;html=1;rounded=0;entryX=1;entryY=0.5;entryDx=0;entryDy=0;exitX=0;exitY=0.5;exitDx=0;exitDy=0;" edge="1" parent="1" source="DGnR2dv2Iqxk1ab3YKql-8" target="DGnR2dv2Iqxk1ab3YKql-7">
          <mxGeometry width="50" height="50" relative="1" as="geometry">
            <mxPoint x="430" y="330" as="sourcePoint" />
            <mxPoint x="480" y="280" as="targetPoint" />
          </mxGeometry>
        </mxCell>
        <mxCell id="DGnR2dv2Iqxk1ab3YKql-16" value="PERTENECER" style="rhombus;whiteSpace=wrap;html=1;" vertex="1" parent="1">
          <mxGeometry x="220" y="330" width="80" height="80" as="geometry" />
        </mxCell>
        <mxCell id="DGnR2dv2Iqxk1ab3YKql-17" value="" style="endArrow=none;html=1;rounded=0;entryX=0.5;entryY=1;entryDx=0;entryDy=0;exitX=0.5;exitY=0;exitDx=0;exitDy=0;" edge="1" parent="1" source="DGnR2dv2Iqxk1ab3YKql-16" target="DGnR2dv2Iqxk1ab3YKql-3">
          <mxGeometry width="50" height="50" relative="1" as="geometry">
            <mxPoint x="270" y="240" as="sourcePoint" />
            <mxPoint x="270" y="190" as="targetPoint" />
            <Array as="points" />
          </mxGeometry>
        </mxCell>
        <mxCell id="DGnR2dv2Iqxk1ab3YKql-18" value="MOTO" style="rounded=1;whiteSpace=wrap;html=1;" vertex="1" parent="1">
          <mxGeometry x="60" y="450" width="120" height="60" as="geometry" />
        </mxCell>
        <mxCell id="DGnR2dv2Iqxk1ab3YKql-19" value="TÃ‰CNICO" style="rounded=1;whiteSpace=wrap;html=1;" vertex="1" parent="1">
          <mxGeometry x="340" y="450" width="120" height="60" as="geometry" />
        </mxCell>
        <mxCell id="DGnR2dv2Iqxk1ab3YKql-20" value="CORREDOR" style="rounded=1;whiteSpace=wrap;html=1;" vertex="1" parent="1">
          <mxGeometry x="200" y="450" width="120" height="60" as="geometry" />
        </mxCell>
        <mxCell id="DGnR2dv2Iqxk1ab3YKql-21" value="" style="endArrow=none;html=1;rounded=0;entryX=0.5;entryY=0;entryDx=0;entryDy=0;exitX=0.5;exitY=1;exitDx=0;exitDy=0;" edge="1" parent="1" source="DGnR2dv2Iqxk1ab3YKql-30" target="DGnR2dv2Iqxk1ab3YKql-19">
          <mxGeometry width="50" height="50" relative="1" as="geometry">
            <mxPoint x="270" y="370" as="sourcePoint" />
            <mxPoint x="270" y="300" as="targetPoint" />
            <Array as="points" />
          </mxGeometry>
        </mxCell>
        <mxCell id="DGnR2dv2Iqxk1ab3YKql-22" value="" style="endArrow=none;html=1;rounded=0;entryX=0.5;entryY=0;entryDx=0;entryDy=0;exitX=0.5;exitY=1;exitDx=0;exitDy=0;" edge="1" parent="1" source="DGnR2dv2Iqxk1ab3YKql-16" target="DGnR2dv2Iqxk1ab3YKql-20">
          <mxGeometry width="50" height="50" relative="1" as="geometry">
            <mxPoint x="310" y="410" as="sourcePoint" />
            <mxPoint x="370" y="410" as="targetPoint" />
            <Array as="points" />
          </mxGeometry>
        </mxCell>
        <mxCell id="DGnR2dv2Iqxk1ab3YKql-23" value="" style="endArrow=none;html=1;rounded=0;exitX=0.5;exitY=0;exitDx=0;exitDy=0;entryX=0.5;entryY=1;entryDx=0;entryDy=0;" edge="1" parent="1" source="DGnR2dv2Iqxk1ab3YKql-18" target="DGnR2dv2Iqxk1ab3YKql-31">
          <mxGeometry width="50" height="50" relative="1" as="geometry">
            <mxPoint x="270" y="450" as="sourcePoint" />
            <mxPoint x="100" y="330" as="targetPoint" />
            <Array as="points" />
          </mxGeometry>
        </mxCell>
        <mxCell id="DGnR2dv2Iqxk1ab3YKql-24" value="(1,N)" style="text;html=1;align=center;verticalAlign=middle;whiteSpace=wrap;rounded=0;" vertex="1" parent="1">
          <mxGeometry x="320" y="140" width="60" height="30" as="geometry" />
        </mxCell>
        <mxCell id="DGnR2dv2Iqxk1ab3YKql-25" value="(1,N)" style="text;html=1;align=center;verticalAlign=middle;whiteSpace=wrap;rounded=0;" vertex="1" parent="1">
          <mxGeometry x="240" y="200" width="60" height="30" as="geometry" />
        </mxCell>
        <mxCell id="DGnR2dv2Iqxk1ab3YKql-26" value="(1,N)" style="text;html=1;align=center;verticalAlign=middle;whiteSpace=wrap;rounded=0;" vertex="1" parent="1">
          <mxGeometry x="630" y="140" width="60" height="30" as="geometry" />
        </mxCell>
        <mxCell id="DGnR2dv2Iqxk1ab3YKql-27" value="(1,N)" style="text;html=1;align=center;verticalAlign=middle;whiteSpace=wrap;rounded=0;" vertex="1" parent="1">
          <mxGeometry x="470" y="140" width="60" height="30" as="geometry" />
        </mxCell>
        <mxCell id="DGnR2dv2Iqxk1ab3YKql-28" value="(1,N)" style="text;html=1;align=center;verticalAlign=middle;whiteSpace=wrap;rounded=0;" vertex="1" parent="1">
          <mxGeometry x="480" y="240" width="60" height="30" as="geometry" />
        </mxCell>
        <mxCell id="DGnR2dv2Iqxk1ab3YKql-29" value="(1,1)&lt;div&gt;&lt;br&gt;&lt;/div&gt;" style="text;html=1;align=center;verticalAlign=middle;whiteSpace=wrap;rounded=0;" vertex="1" parent="1">
          <mxGeometry x="405" y="170" width="60" height="30" as="geometry" />
        </mxCell>
        <mxCell id="DGnR2dv2Iqxk1ab3YKql-30" value="PERTENECER" style="rhombus;whiteSpace=wrap;html=1;" vertex="1" parent="1">
          <mxGeometry x="310" y="330" width="80" height="80" as="geometry" />
        </mxCell>
        <mxCell id="DGnR2dv2Iqxk1ab3YKql-31" value="PERTENECER" style="rhombus;whiteSpace=wrap;html=1;" vertex="1" parent="1">
          <mxGeometry x="130" y="330" width="80" height="80" as="geometry" />
        </mxCell>
        <mxCell id="DGnR2dv2Iqxk1ab3YKql-32" value="" style="endArrow=none;html=1;rounded=0;entryX=0.5;entryY=0;entryDx=0;entryDy=0;" edge="1" parent="1" target="DGnR2dv2Iqxk1ab3YKql-31">
          <mxGeometry width="50" height="50" relative="1" as="geometry">
            <mxPoint x="260" y="290" as="sourcePoint" />
            <mxPoint x="180" y="420" as="targetPoint" />
            <Array as="points" />
          </mxGeometry>
        </mxCell>
        <mxCell id="DGnR2dv2Iqxk1ab3YKql-33" value="" style="endArrow=none;html=1;rounded=0;exitX=0.5;exitY=0;exitDx=0;exitDy=0;" edge="1" parent="1" source="DGnR2dv2Iqxk1ab3YKql-30">
          <mxGeometry width="50" height="50" relative="1" as="geometry">
            <mxPoint x="360" y="420" as="sourcePoint" />
            <mxPoint x="260" y="290" as="targetPoint" />
            <Array as="points" />
          </mxGeometry>
        </mxCell>
        <mxCell id="DGnR2dv2Iqxk1ab3YKql-36" value="(0,1)" style="text;html=1;align=center;verticalAlign=middle;whiteSpace=wrap;rounded=0;" vertex="1" parent="1">
          <mxGeometry x="250" y="300" width="60" height="30" as="geometry" />
        </mxCell>
        <mxCell id="DGnR2dv2Iqxk1ab3YKql-37" value="(0,1)" style="text;html=1;align=center;verticalAlign=middle;whiteSpace=wrap;rounded=0;" vertex="1" parent="1">
          <mxGeometry x="290" y="290" width="60" height="30" as="geometry" />
        </mxCell>
        <mxCell id="DGnR2dv2Iqxk1ab3YKql-38" value="(0,1)" style="text;html=1;align=center;verticalAlign=middle;whiteSpace=wrap;rounded=0;" vertex="1" parent="1">
          <mxGeometry x="170" y="290" width="60" height="30" as="geometry" />
        </mxCell>
        <mxCell id="DGnR2dv2Iqxk1ab3YKql-39" value="(1,N)" style="text;html=1;align=center;verticalAlign=middle;whiteSpace=wrap;rounded=0;" vertex="1" parent="1">
          <mxGeometry x="70" y="420" width="60" height="30" as="geometry" />
        </mxCell>
        <mxCell id="DGnR2dv2Iqxk1ab3YKql-40" value="(1,N)" style="text;html=1;align=center;verticalAlign=middle;whiteSpace=wrap;rounded=0;" vertex="1" parent="1">
          <mxGeometry x="210" y="420" width="60" height="30" as="geometry" />
        </mxCell>
        <mxCell id="DGnR2dv2Iqxk1ab3YKql-41" value="(1,N)" style="text;html=1;align=center;verticalAlign=middle;whiteSpace=wrap;rounded=0;" vertex="1" parent="1">
          <mxGeometry x="370" y="420" width="60" height="30" as="geometry" />
        </mxCell>
        <mxCell id="DGnR2dv2Iqxk1ab3YKql-43" value="&lt;ul&gt;&lt;li&gt;&lt;u&gt;AÃ±o&lt;/u&gt;&lt;/li&gt;&lt;li&gt;Nombre&lt;/li&gt;&lt;li&gt;FechaComienzo&lt;/li&gt;&lt;li&gt;FechaFin&lt;/li&gt;&lt;/ul&gt;" style="text;strokeColor=none;fillColor=none;html=1;whiteSpace=wrap;verticalAlign=middle;overflow=hidden;" vertex="1" parent="1">
          <mxGeometry x="530" y="275" width="150" height="80" as="geometry" />
        </mxCell>
        <mxCell id="DGnR2dv2Iqxk1ab3YKql-45" value="&lt;ul&gt;&lt;li&gt;&lt;u&gt;Nombre&lt;/u&gt;&lt;/li&gt;&lt;li&gt;Ciudad&lt;/li&gt;&lt;li&gt;FechaCarrera&lt;/li&gt;&lt;/ul&gt;" style="text;strokeColor=none;fillColor=none;html=1;whiteSpace=wrap;verticalAlign=middle;overflow=hidden;" vertex="1" parent="1">
          <mxGeometry x="690" y="40" width="140" height="80" as="geometry" />
        </mxCell>
        <mxCell id="DGnR2dv2Iqxk1ab3YKql-50" value="&lt;ul&gt;&lt;li&gt;&lt;u&gt;Cod_moto&lt;/u&gt;&lt;/li&gt;&lt;/ul&gt;" style="text;strokeColor=none;fillColor=none;html=1;whiteSpace=wrap;verticalAlign=middle;overflow=hidden;" vertex="1" parent="1">
          <mxGeometry x="50" y="490" width="150" height="80" as="geometry" />
        </mxCell>
        <mxCell id="DGnR2dv2Iqxk1ab3YKql-52" value="(1,N)" style="text;html=1;align=center;verticalAlign=middle;whiteSpace=wrap;rounded=0;" vertex="1" parent="1">
          <mxGeometry x="320" y="370" width="60" height="30" as="geometry" />
        </mxCell>
        <mxCell id="DGnR2dv2Iqxk1ab3YKql-53" value="(1,N)" style="text;html=1;align=center;verticalAlign=middle;whiteSpace=wrap;rounded=0;" vertex="1" parent="1">
          <mxGeometry x="230" y="370" width="60" height="30" as="geometry" />
        </mxCell>
        <mxCell id="DGnR2dv2Iqxk1ab3YKql-54" value="(1,N)" style="text;html=1;align=center;verticalAlign=middle;whiteSpace=wrap;rounded=0;" vertex="1" parent="1">
          <mxGeometry x="140" y="370" width="60" height="30" as="geometry" />
        </mxCell>
        <mxCell id="DGnR2dv2Iqxk1ab3YKql-55" value="(1,N)" style="text;html=1;align=center;verticalAlign=middle;whiteSpace=wrap;rounded=0;" vertex="1" parent="1">
          <mxGeometry x="395" y="260" width="60" height="30" as="geometry" />
        </mxCell>
        <mxCell id="DGnR2dv2Iqxk1ab3YKql-56" value="(N,M)" style="text;html=1;align=center;verticalAlign=middle;whiteSpace=wrap;rounded=0;" vertex="1" parent="1">
          <mxGeometry x="230" y="140" width="60" height="30" as="geometry" />
        </mxCell>
        <mxCell id="DGnR2dv2Iqxk1ab3YKql-57" value="(N,M)" style="text;html=1;align=center;verticalAlign=middle;whiteSpace=wrap;rounded=0;" vertex="1" parent="1">
          <mxGeometry x="550" y="140" width="60" height="30" as="geometry" />
        </mxCell>
      </root>
    </mxGraphModel>
  </diagram>
</mxfile>
